<?xml version="1.0" standalone="no"?><!DOCTYPE svg PUBLIC "-//W3C//DTD SVG 1.1//EN" "http://www.w3.org/Graphics/SVG/1.1/DTD/svg11.dtd"><svg t="1582119903462" class="icon" viewBox="0 0 1024 1024" version="1.1" xmlns="http://www.w3.org/2000/svg" p-id="2963" xmlns:xlink="http://www.w3.org/1999/xlink" width="32" height="32"><defs><style type="text/css"></style></defs><path d="M572.7 737.6c-49 25.5-75.9 25.2-114.6 6.7-38.5-18.4-360-152.7-360-152.7V689c0 8.4 11.7 17.2 33.5 27.7 44 21.1 288.1 119.5 326.4 138.1 38.5 18.5 65.7 18.6 114.6-6.7 49-25.5 278.1-119.6 322.4-142.8 22.5-11.7 32.5-21 32.5-29.1V580h-0.1c-0.1-0.2-305.9 132-354.7 157.6z" fill="#5cb1ff" p-id="2964"></path><path d="M572.7 600.8c-49 25.5-75.9 25.2-114.6 6.7-38.5-18.6-360.1-153-360.1-153V552c0 8.4 11.7 17.2 33.5 27.7 44 21.2 288.1 119.6 326.4 138.2 38.5 18.5 65.7 18.6 114.6-6.7 49-25.5 278.1-119.6 322.4-142.8 22.5-11.7 32.5-21 32.5-29.1v-96.2h-0.1c0-0.2-305.8 132.1-354.6 157.7z" fill="#5cb1ff" p-id="2965"></path><path d="M927.6 314.7c0.4-8.4-10.8-15.9-32.9-24-43.2-15.9-271-106.5-314.7-122.5-43.8-16-61.5-15.3-112.8 3s-294 113.6-337.1 130.5c-21.8 8.5-32.4 16.5-31.7 25v-0.1 95.8s321.4 135.4 360.1 153.8c38.5 18.5 65.7 18.6 114.6-6.7C622 543.8 928 409.3 928 409.3l-0.4-94.6z m-107.4 2.6l-126 49.7-113.6-44.9 125.8-49.8 113.8 45z m-232.7 47.2l-58.2 85.2-134-55.6 192.2-29.6z m-101-129.4L468 200.7l58 22.6 54.6-17.9-14.8 35.4 55.7 21-71.9 7.4-16.3 38.8-25.9-43.3-83-7.4 62.1-22.2z m-143.1 48.2c56.7 0 102.8 17.7 102.8 39.8 0 21.9-46.1 39.8-102.8 39.8-56.7 0-102.8-17.7-102.8-39.8 0.1-21.8 46-39.8 102.8-39.8z" fill="#5cb1ff" p-id="2966"></path></svg>