<?xml version="1.0" standalone="no"?><!DOCTYPE svg PUBLIC "-//W3C//DTD SVG 1.1//EN" "http://www.w3.org/Graphics/SVG/1.1/DTD/svg11.dtd"><svg t="1582122351926" class="icon" viewBox="0 0 1024 1024" version="1.1" xmlns="http://www.w3.org/2000/svg" p-id="3334" xmlns:xlink="http://www.w3.org/1999/xlink" width="72" height="72"><defs><style type="text/css"></style></defs><path d="M995.555556 608.711111v96.711111c0 11.377778-11.377778 22.755556-39.822223 34.133334-51.2 28.444444-318.577778 136.533333-375.466666 164.977777s-91.022222 28.444444-130.844445 5.688889c-45.511111-22.755556-329.955556-136.533333-381.155555-159.288889-22.755556-11.377778-39.822222-22.755556-39.822223-34.133333v-96.711111c0 11.377778 11.377778 22.755556 39.822223 34.133333 51.2 22.755556 335.644444 136.533333 381.155555 159.288889 45.511111 22.755556 73.955556 22.755556 130.844445-5.688889 56.888889-28.444444 324.266667-136.533333 375.466666-164.977778 28.444444-17.066667 39.822222-28.444444 39.822223-34.133333zM28.444444 392.533333V295.822222c0-11.377778 11.377778-17.066667 39.822223-28.444444C113.777778 244.622222 398.222222 136.533333 460.8 113.777778s79.644444-22.755556 130.844444 0c51.2 17.066667 318.577778 125.155556 364.088889 142.222222 22.755556 11.377778 39.822222 17.066667 39.822223 28.444444v96.711112c0 11.377778-11.377778 22.755556-39.822223 34.133333-51.2 28.444444-318.577778 136.533333-375.466666 164.977778s-91.022222 28.444444-130.844445 5.688889c-45.511111-22.755556-329.955556-136.533333-381.155555-159.288889-22.755556-11.377778-39.822222-22.755556-39.822223-34.133334z m568.888889-51.2l-221.866666 34.133334 153.6 62.577777L597.333333 341.333333zM739.555556 233.244444l-147.911112 56.888889 130.844445 51.2 17.066667-5.688889 130.844444-51.2-130.844444-51.2z m-329.955556-17.066666l96.711111 11.377778 28.444445 51.2 22.755555-51.2 85.333333-11.377778-62.577777-22.755556 17.066666-39.822222-68.266666 22.755556-68.266667-28.444445 22.755556 39.822222-73.955556 28.444445zM193.422222 290.133333c0 28.444444 51.2 45.511111 119.466667 45.511111 68.266667 0 119.466667-22.755556 119.466667-45.511111s-51.2-45.511111-119.466667-45.511111c-62.577778 0-119.466667 22.755556-119.466667 45.511111z m762.311111 187.733334c-51.2 28.444444-318.577778 136.533333-375.466666 164.977777s-91.022222 28.444444-130.844445 5.688889C403.911111 625.777778 119.466667 512 68.266667 489.244444c-22.755556-5.688889-39.822222-17.066667-39.822223-28.444444v96.711111c0 11.377778 11.377778 22.755556 39.822223 34.133333 51.2 22.755556 335.644444 136.533333 381.155555 159.288889 45.511111 22.755556 73.955556 22.755556 130.844445-5.688889 56.888889-28.444444 324.266667-136.533333 375.466666-164.977777 28.444444-11.377778 39.822222-22.755556 39.822223-34.133334V449.422222c0 5.688889-11.377778 17.066667-39.822223 28.444445z" fill="#31C5B3" p-id="3335"></path></svg>