<svg t="1642923998572" class="icon" viewBox="0 0 1024 1024" version="1.1" xmlns="http://www.w3.org/2000/svg" p-id="11052" width="512" height="512"><path d="M454.741333 350.737067c0-18.7392-39.406933-33.928533-88.064-33.928534v-0.068266c-48.64 0-88.098133 15.2576-88.098133 33.9968 0 18.756267 39.458133 33.979733 88.098133 33.979733s88.064-15.223467 88.064-33.979733zM411.118933 411.1872l114.944 47.445333 49.7664-72.618666-164.7616 25.173333zM529.732267 337.783467l13.806933-33.024 61.627733-6.4-47.7696-17.783467 12.663467-30.242133-46.865067 15.274666-49.7152-19.319466 15.940267 29.252266-53.0944 19.029334 71.1168 6.382933z" fill="#d81e06" p-id="11053"></path><path d="M780.322133 0H243.677867C109.1072 0 0 109.1072 0 243.677867v536.6272C0 914.8928 109.1072 1024 243.677867 1024h536.644266C914.8928 1024 1024 914.8928 1024 780.322133V243.677867C1024 109.1072 914.8928 0 780.322133 0z m87.1936 651.588267c0 7.048533-8.584533 14.830933-27.8528 24.849066-37.956267 19.677867-234.496 100.027733-276.360533 121.821867-41.8816 21.742933-65.1264 21.486933-98.167467 5.7856-33.041067-15.735467-242.2272-99.822933-279.927466-117.725867-18.8416-8.977067-28.740267-16.554667-28.740267-23.688533v-71.509333c0.341333 7.133867 9.9328 14.677333 28.740267 23.637333 37.6832 17.902933 246.852267 101.973333 279.927466 117.691733 33.0752 15.7696 56.337067 15.940267 98.167467-5.7344 41.8304-21.691733 238.455467-102.144 276.360533-121.8048 18.432-9.591467 27.392-17.134933 27.6992-23.876266l0.1536 0.0512v70.5024z m0-116.616534c0 7.031467-8.584533 14.830933-27.8528 24.849067-37.956267 19.643733-234.496 100.078933-276.360533 121.821867-41.8816 21.725867-65.0752 21.469867-98.167467 5.751466-33.0752-15.7184-242.2272-99.805867-279.927466-117.725866-18.8416-8.942933-28.740267-16.520533-28.740267-23.620267v-71.543467c0.341333 7.099733 9.9328 14.677333 28.740267 23.620267 37.6832 17.92 246.852267 102.007467 279.927466 117.76 33.0752 15.735467 56.285867 15.940267 98.167467-5.768533 41.864533-21.725867 238.455467-102.178133 276.360533-121.838934 18.397867-9.591467 27.374933-17.1008 27.665067-23.842133l0.187733 0.034133v70.5024z m0.034134-120.9856c0 7.048533-8.584533 14.830933-27.8528 24.849067-37.956267 19.6608-234.530133 100.164267-276.394667 121.856-41.8816 21.691733-65.0752 21.486933-98.167467 5.768533-33.0752-15.701333-242.2272-99.84-279.927466-117.742933-18.8416-8.977067-28.740267-16.520533-28.740267-23.6544v-71.560533c-0.256-7.185067 8.772267-13.841067 27.2896-21.0944 37.000533-14.3872 245.213867-95.556267 289.109333-111.274667 43.912533-15.701333 59.153067-16.349867 96.580267-2.679467 37.393067 13.687467 232.8064 91.101867 269.806933 104.5504 18.9952 6.946133 28.4672 13.2608 28.091734 20.462934h0.221866v70.519466z" fill="#d81e06" p-id="11054"></path><path d="M678.024533 307.473067l-107.9296 42.4448 97.399467 38.3488 10.564267-4.113067 97.416533-38.3488z" fill="#d81e06" p-id="11055"></path></svg>
